<svg xmlns="http://www.w3.org/2000/svg">
	<symbol id="logo__beats">
		<path d="M20 26C23.3 26 26 23.3 26 20C26 16.7 23.3 14 20 14C16.7 14 14 16.7 14 20C14 23.3 16.7 26 20 26ZM20 0C18 0 15.9 0.3 14 0.9V12C18.4 8.7 24.7 9.6 28 14C31.3 18.4 30.4 24.7 26 28C21.6 31.3 15.3 30.4 12 26C10.7 24.3 9.99999 22.2 9.99999 20V2.7C0.399989 8.2 -2.80001 20.4 2.69999 30C8.19999 39.6 20.4 42.8 30 37.3C39.6 31.8 42.8 19.6 37.3 10C33.8 3.8 27.2 0 20 0Z" fill="#E01F3D" />
	</symbol>
	<symbol id="phone__icon">
		<path d="M13.7455 13.0923C13.4909 13.5935 12.9818 13.8441 12.4727 14.0947C11.8364 14.4706 11.3273 14.5959 10.6909 14.5959C9.8 14.5959 8.90909 14.22 8.14545 13.9694C7.50909 13.7188 7 13.4682 6.36364 13.2176C4.58182 12.09 2.54545 10.0853 1.52727 8.45643C1.14545 7.82996 0.890909 7.32878 0.636364 6.70231C0.381818 5.82525 0 5.07349 0 4.07113C0 3.44466 0.127273 2.81819 0.509091 2.19172C0.763636 1.69054 1.01818 1.18936 1.52727 0.938771C1.90909 0.938771 2.54545 0.813477 2.92727 0.813477C3.05455 0.813477 3.05455 0.813477 3.18182 0.813477C3.43636 0.938771 3.56364 1.31465 3.69091 1.56524C3.94545 2.19172 4.32727 2.69289 4.58182 3.31936C4.83636 3.56995 5.09091 3.82054 5.09091 4.07113C5.09091 4.6976 3.30909 5.57466 3.30909 6.07584C3.30909 6.32643 3.56364 6.70231 3.69091 6.9529C4.70909 8.70702 5.98182 9.95997 7.76364 10.9623C8.01818 11.0876 8.4 11.3382 8.65455 11.3382C9.16364 11.3382 10.0545 9.58408 10.6909 9.58408C10.9455 9.58408 11.2 9.83467 11.4545 10.0853C11.9636 10.4611 12.6 10.7117 13.1091 11.0876C13.3636 11.2129 13.7455 11.3382 13.8727 11.5888C13.8727 11.7141 13.8727 11.7141 13.8727 11.8394C14 12.09 13.8727 12.7164 13.7455 13.0923Z" fill="#292929" />
	</symbol>
	<symbol id="header__humburger-item">
		<path d="M23.9417 0H2.05833C0.866667 0 0 0.866667 0 2.05833V2.38333C0 3.46667 0.866667 4.33333 2.05833 4.33333H24.05C25.1333 4.33333 26.1083 3.46667 26.1083 2.275V2.05833C26 0.866667 25.1333 0 23.9417 0Z" fill="#292929" />
		<path d="M23.9417 9.75H2.05833C0.866667 9.75 0 10.725 0 11.8083V12.1333C0 13.2167 0.866667 14.1917 2.05833 14.1917H24.05C25.1333 14.1917 26.1083 13.325 26.1083 12.1333V11.8083C26 10.725 25.1333 9.75 23.9417 9.75Z" fill="#292929" />
		<path d="M23.9417 19.5H2.05833C0.975 19.5 0 20.3667 0 21.5583V21.8833C0 22.9667 0.866667 23.9417 2.05833 23.9417H24.05C25.1333 23.9417 26.1083 23.075 26.1083 21.8833V21.5583C26 20.475 25.1333 19.5 23.9417 19.5Z" fill="#292929" />
	</symbol>
</svg>
